<?xml version="1.0" encoding="utf-8"?>
<!-- Generator: Adobe Illustrator 19.2.1, SVG Export Plug-In . SVG Version: 6.00 Build 0)  -->
<svg version="1.1" id="layer" xmlns="http://www.w3.org/2000/svg" xmlns:xlink="http://www.w3.org/1999/xlink" x="0px" y="0px"
	 viewBox="0 0 652 652" style="enable-background:new 0 0 652 652;" xml:space="preserve">
<style type="text/css">
	.st0{fill:#009CDE;}
</style>
<path d="M588.8,361.6h2.5v2.9c1.2-1.8,2.9-3.3,5.7-3.3c4.1,0,6.5,2.7,6.5,6.7v10.4H601v-9.8c0-3.1-1.8-5.1-4.7-5.1s-5.1,2.2-5.1,5.3
	v9.6h-2.5v-16.7H588.8z M580.8,361.6h2.5v16.7h-2.5V361.6z M580.6,355.2h2.9v2.7h-2.9V355.2z M550,361.6h2.5v2.7
	c1.2-1.6,2.6-3.1,5.5-3.1c2.7,0,4.5,1.4,5.3,3.3c1.2-1.8,2.9-3.3,5.9-3.3c3.9,0,6.3,2.5,6.3,6.7v10.4H573v-9.8
	c0-3.3-1.6-5.1-4.3-5.1c-2.5,0-4.7,2-4.7,5.1v9.6h-2.5v-9.8c0-3.1-1.6-4.9-4.3-4.9c-2.7,0-4.7,2.2-4.7,5.3v9.6h-2.5v-16.7H550z
	 M537.3,361.6h2.5v4.3c1.2-2.7,3.7-4.7,6.9-4.7v2.7h-0.2c-3.7,0-6.7,2.5-6.7,7.6v6.7h-2.5V361.6z M529.8,372.2v-1.6
	c-1.2-0.4-2.9-0.8-4.9-0.8c-3.1,0-4.9,1.4-4.9,3.3c0,2.2,2,3.3,4.1,3.3C527.5,376.7,529.8,375,529.8,372.2 M517.5,373.6L517.5,373.6
	c0-3.7,2.9-5.5,7.3-5.5c2.2,0,3.7,0.2,5.1,0.8v-0.6c0-2.9-1.8-4.5-4.9-4.5c-2,0-3.5,0.4-5.1,1.2l-0.8-2c1.8-0.8,3.7-1.4,6.1-1.4
	c2.4,0,4.1,0.6,5.5,1.8c1.2,1.2,1.8,2.7,1.8,4.9v10.2h-2.5v-2.5c-1.2,1.6-3.1,2.9-6.1,2.9C520.6,378.7,517.5,376.9,517.5,373.6
	 M492.8,367.1L492.8,367.1c0-6.3,4.5-11.8,11.4-11.8c3.9,0,6.3,1.2,8.4,2.9l-1.6,2c-1.8-1.6-3.7-2.5-6.9-2.5c-5.1,0-8.6,4.3-8.6,9.2
	c0,5.5,3.5,9.4,9,9.4c2.6,0,4.9-1,6.5-2.4v-5.5h-6.9v-2.4h9.4v9c-2.2,2-5.3,3.5-9,3.5C497.3,378.9,492.8,373.6,492.8,367.1
	 M464.1,382.8l0.8-2c0.8,0.4,1.6,0.6,2.6,0.6c1.6,0,2.4-0.8,3.5-3.1l-7.7-16.7h2.7l6.1,13.9l5.3-13.9h2.7l-7.1,17.3
	c-1.4,3.5-3.1,4.7-5.5,4.7C466.5,383.6,465.3,383.4,464.1,382.8 M459.2,370.1L459.2,370.1c0-3.9-2.7-6.5-5.9-6.5
	c-3.1,0-6.1,2.5-6.1,6.5c0,3.9,2.9,6.5,6.1,6.5C456.5,376.5,459.2,374.2,459.2,370.1 M447.3,375.1v3.1h-2.5v-23.5h2.5V365
	c1.4-2,3.3-3.7,6.5-3.7c3.9,0,8,3.1,8,8.6s-3.9,8.6-8,8.6C450.6,378.7,448.7,377.1,447.3,375.1 M427.9,370.1L427.9,370.1
	c0-3.9-2.9-6.5-6.1-6.5c-3.3,0-5.9,2.4-5.9,6.5c0,3.9,2.7,6.5,5.9,6.5C424.7,376.5,427.9,374,427.9,370.1 M413.2,370.1L413.2,370.1
	c0-5.5,3.9-8.8,8-8.8c3.1,0,5.1,1.8,6.5,3.5v-10h2.5v23.7h-2.5v-3.3c-1.4,2-3.3,3.7-6.5,3.7C417.3,378.7,413.2,375.5,413.2,370.1
	 M407.7,369.1c-0.2-3.1-2-5.7-5.3-5.7c-2.9,0-5.1,2.4-5.5,5.7H407.7z M402.8,376.5c2.4,0,3.9-1,5.3-2.4l1.6,1.4
	c-1.8,2-3.7,3.1-6.9,3.1c-4.5,0-8.4-3.5-8.4-8.8c0-4.9,3.3-8.8,8-8.8c4.9,0,7.8,3.9,7.8,8.8v0.8h-13.3
	C397.3,374.6,399.8,376.5,402.8,376.5 M383.4,361.6h2.6v4.3c1.2-2.7,3.7-4.7,6.9-4.7v2.7h-0.2c-3.7,0-6.7,2.5-6.7,7.6v6.7h-2.6
	V361.6z M376.7,369.1c-0.2-3.1-2-5.7-5.3-5.7c-2.9,0-5.1,2.4-5.5,5.7H376.7z M371.8,376.5c2.4,0,3.9-1,5.3-2.4l1.6,1.4
	c-1.8,2-3.7,3.1-6.9,3.1c-4.5,0-8.4-3.5-8.4-8.8c0-4.9,3.3-8.8,8-8.8c4.9,0,7.8,3.9,7.8,8.8v0.8h-13.3
	C366.3,374.6,368.8,376.5,371.8,376.5 M336.3,361.6h2.7l4.3,13.5l4.5-13.5h2.2l4.5,13.5l4.3-13.5h2.5l-5.9,16.9h-2.2l-4.5-13.1
	l-4.5,13.1h-2.2L336.3,361.6z M331.8,370.1L331.8,370.1c0-3.7-2.7-6.7-6.3-6.7c-3.7,0-6.1,2.9-6.1,6.5c0,3.5,2.7,6.5,6.3,6.5
	C329.2,376.5,331.8,373.6,331.8,370.1 M316.9,370.1L316.9,370.1c0-4.7,3.7-8.8,8.8-8.8c5.1,0,8.6,3.9,8.6,8.6s-3.7,8.8-8.8,8.8
	C320.4,378.9,316.9,374.8,316.9,370.1 M311,370.1L311,370.1c0-3.9-2.7-6.5-5.9-6.5c-3.1,0-6.1,2.5-6.1,6.5c0,3.9,2.9,6.5,6.1,6.5
	C308.5,376.5,311,374.2,311,370.1 M296.7,361.6h2.5v3.3c1.4-2,3.3-3.7,6.5-3.7c3.9,0,8,3.1,8,8.6s-3.9,8.6-8,8.6
	c-3.1,0-5.1-1.8-6.5-3.5v8.4h-2.5V361.6z"/>
<path d="M273,272.4c-6.1,0-11.2,1.2-15.5,3.3c-2,1-3.3,1.8-7.1,4.9c0,0-9,9-9,22.9v27.8c0,1,0.8,2,2,2h4.3c1,0,2-0.8,2-2v-27.6
	c0-3.7,1-7.6,2.9-11.6c2.2-4.3,7.7-11.8,20.6-11.8c9.6,0,16.7,4.1,20.6,11.8c2,3.9,3.1,7.6,3.1,11.6v27.8c0,1,0.8,2,2,2h4.3
	c1,0,2-0.8,2-2v-27.8C304.7,275.3,282.6,272.4,273,272.4 M196.7,272.4c-6.1,0-11.2,1.2-15.5,3.3c-2,1-3.3,1.8-7.1,4.9
	c0,0-9,9-9,22.9v27.8c0,1,0.8,2,2,2h4.3c1,0,2-0.8,2-2v-27.6c0-3.7,1-7.6,2.9-11.6c2.2-4.3,7.6-11.8,20.6-11.8
	c9.6,0,16.7,4.1,20.6,11.8c2,3.9,3.1,7.6,3.1,11.6v27.8c0,1,0.8,2,2,2h4.3c1,0,2-0.8,2-2v-27.8C228.5,275.3,206.3,272.4,196.7,272.4
	 M478.7,275.5h-10.6v-14.9c0-0.8-0.8-1.6-1.6-1.6h-4.9c-0.8,0-1.6,0.8-1.6,1.6v53.9c0,10.2,6.7,17.6,17.3,19.4
	c0.6,0,1.8,0.2,1.8-1.6v-4.7c0-1.4-1.2-1.8-1.8-2c-5.9-1.6-9-5.5-9-11.2v-31h10.4c0.8,0,1.4-0.6,1.4-1.4v-5.3
	C480,276.1,479.2,275.5,478.7,275.5 M73.2,315.9c-2.7,7.1-10.2,11.2-20.4,11.2c-12.9,0-23.5-10.6-23.5-23.3
	c0-12.9,10.6-23.3,23.5-23.3c10.2,0,17.3,4.3,20.4,11c0.6,1.4,0.8,2,2.2,2H81c1.2,0,1.4-1.2,1.2-1.8c-3.1-11.6-14.5-19.2-29.4-19.2
	c-17.7,0-31.8,13.9-31.8,31.4c0,17.3,14.1,31.4,31.8,31.4c14.7,0,26.1-7.6,29.4-19c0.2-0.6,0-2-1.2-2h-5.5
	C73.7,314.2,73.4,315.3,73.2,315.9 M323.8,299.7h45.1c1,0,0.8-0.8,0.8-0.8c-2.2-7.5-10.2-18.6-23.1-18.6c-12.6,0-21,11-23.1,18.6
	C323.2,299.1,323,299.7,323.8,299.7 M367.5,319.3h4.3c2.7,0,2.2,1.6,1.8,2.4c-3.5,8.2-13.9,13.5-27.3,13.5
	c-17.5,0-31.8-14.1-31.8-31.4c0-17.3,14.1-31.4,31.8-31.4c9.4,0,18,3.7,23.9,10.2c5.5,6.1,8,14.1,7.6,23.3c0,0.6-0.2,1.8-2.5,1.8
	h-51.4c-0.6,0-0.6,0.6-0.6,0.6c0.4,8.8,10.4,18.8,22.7,18.8c7.8,0,13.3-2,16.7-5.3C364.7,320.1,365.1,319.3,367.5,319.3
	 M438.5,315.9c-2.7,7.1-10.2,11.2-20.4,11.2c-12.9,0-23.5-10.6-23.5-23.3c0-12.9,10.6-23.3,23.5-23.3c10.2,0,17.3,4.3,20.4,11
	c0.6,1.4,0.8,2,2.2,2h5.7c1,0,1.4-1.2,1.2-1.8c-3.1-11.6-14.5-19.2-29.4-19.2c-17.5,0-31.8,14.1-31.8,31.4
	c0,17.3,14.3,31.4,31.8,31.4c14.7,0,26.1-7.6,29.4-19c0.2-0.6,0-2-1.2-2h-5.5C439.2,314.2,438.7,315.3,438.5,315.9 M147.1,309.3
	c-2.7,10.4-12.2,18-23.5,18c-11.2,0-20.4-7.6-22.9-18h-8.4c2.4,14.9,15.3,26.1,31.2,26.1c15.9,0,29.2-11.4,32.2-26.3h-8.4V309.3z
	 M100.8,298.3h-8.4c2.9-14.9,16.1-26.3,32-26.3c15.5,0,28.8,11.6,31.2,26.1h-8.4c-2.4-10.4-11.8-18-22.9-18
	C113.2,280.1,103.6,287.9,100.8,298.3"/>
<path class="st0" d="M612.4,283.6h1.2v-7.1l2.7,7.1h0.8l2.7-7.1v7.1h1.2v-8h-2l-2.4,6.1l-2.4-6.1h-2V283.6z M606.9,283.6h1.2v-7.1
	h2.5v-1h-6.3v1h2.6V283.6z M579.4,326.7c-0.4-0.4-1-0.6-1.6-0.4c-2.2,0.6-4.3,1-6.7,1c-13.1,0-23.7-10.6-23.7-23.5
	s10.6-23.5,23.7-23.5c13.1,0,23.7,10.6,23.7,23.5c0,2.4-0.4,4.7-1,6.9c-0.2,0.6,0,1.2,0.4,1.6l4.1,4.1c0.8,0.8,2.2,0.6,2.5-0.4
	c1.6-3.7,2.4-7.8,2.4-12c0-17.5-14.3-31.8-32.2-31.8c-17.6,0-32.2,14.1-32.2,31.8c0,17.5,14.3,31.8,32.2,31.8c4.1,0,8-0.8,11.8-2.2
	c1-0.4,1.4-1.8,0.6-2.5L579.4,326.7z M582,311l-3.3,3.3c-0.6,0.6-0.6,1.8,0,2.4l19.6,19.6c0.6,0.6,1.8,0.6,2.4,0l3.3-3.3
	c0.6-0.6,0.6-1.8,0-2.4L584.3,311C583.6,310.2,582.6,310.2,582,311 M526.9,277.1v54.7c0,1-0.8,1.6-1.6,1.6h-4.7
	c-1,0-1.6-0.8-1.6-1.6v-54.7c0-1,0.8-1.6,1.6-1.6h4.7C526.1,275.5,526.9,276.3,526.9,277.1"/>
</svg>
